<svg xmlns="http://www.w3.org/2000/svg" width="960" height="370" viewBox="0 0 960 370" role="img" aria-labelledby="title desc">
<title id="title">观察—决策—行动闭环</title><desc id="desc">模型产生候选动作；运行时执行；环境返回可验证反馈</desc>
<style>.heading{font:700 25px -apple-system,BlinkMacSystemFont,'PingFang SC',sans-serif;fill:#17302d}.sub{font:14px -apple-system,BlinkMacSystemFont,'PingFang SC',sans-serif;fill:#5d756d}.label{font:700 18px -apple-system,BlinkMacSystemFont,'PingFang SC',sans-serif;fill:#17302d}.detail{font:13px -apple-system,BlinkMacSystemFont,'PingFang SC',sans-serif;fill:#48645b}.edge{font:12px -apple-system,BlinkMacSystemFont,'PingFang SC',sans-serif;fill:#536b63}</style>
<rect width="960" height="370" rx="20" fill="#f9fcfa" stroke="#dce8e1"/>
<text x="36" y="48" class="heading">观察—决策—行动闭环</text><text x="36" y="75" class="sub">模型产生候选动作；运行时执行；环境返回可验证反馈</text>
<g><rect x="40" y="130" width="190" height="102" rx="16" fill="#e8f0ff" stroke="#4771ba" stroke-width="2"/><text x="60" y="164" class="label">环境与目标</text><text x="60" y="191" class="detail">当前状态 / 用户目标</text></g><g><rect x="275" y="130" width="190" height="102" rx="16" fill="#e1f4ee" stroke="#12826e" stroke-width="2"/><text x="295" y="164" class="label">观察与状态</text><text x="295" y="191" class="detail">历史 / 检索 / 反馈</text></g><g><rect x="510" y="130" width="190" height="102" rx="16" fill="#f0eafd" stroke="#8260bd" stroke-width="2"/><text x="530" y="164" class="label">策略与规划</text><text x="530" y="191" class="detail">规则 / 搜索 / 模型</text></g><g><rect x="745" y="130" width="175" height="102" rx="16" fill="#fff0df" stroke="#c77732" stroke-width="2"/><text x="765" y="164" class="label">执行动作</text><text x="765" y="191" class="detail">工具 / API / 人</text></g><path d="M230 181 L267 181" stroke="#56716a" stroke-width="2.5" fill="none"/><polygon points="267,181 260.2,185.2 260.2,176.8" fill="#56716a"/><path d="M465 181 L502 181" stroke="#56716a" stroke-width="2.5" fill="none"/><polygon points="502,181 495.2,185.2 495.2,176.8" fill="#56716a"/><path d="M700 181 L737 181" stroke="#56716a" stroke-width="2.5" fill="none"/><polygon points="737,181 730.2,185.2 730.2,176.8" fill="#56716a"/><path d="M832 241 L832 296 L140 296 L140 241" stroke="#56716a" stroke-width="2.5" fill="none" /><polygon points="140,241 144.2,247.8 135.8,247.8" fill="#56716a"/><text x="352" y="285" class="edge">环境转移与结果校验</text>
</svg>