<svg xmlns="http://www.w3.org/2000/svg" width="960" height="440" viewBox="0 0 960 440" role="img" aria-labelledby="title desc">
<title id="title">Agent Harness：从决策到可验收的行动</title><desc id="desc">运行时组织上下文与执行；持久化状态支撑恢复；完成由验收结果判定</desc>
<style>.heading{font:700 25px -apple-system,BlinkMacSystemFont,'PingFang SC',sans-serif;fill:#17302d}.sub{font:14px -apple-system,BlinkMacSystemFont,'PingFang SC',sans-serif;fill:#5d756d}.label{font:700 18px -apple-system,BlinkMacSystemFont,'PingFang SC',sans-serif;fill:#17302d}.detail{font:13px -apple-system,BlinkMacSystemFont,'PingFang SC',sans-serif;fill:#48645b}.edge{font:12px -apple-system,BlinkMacSystemFont,'PingFang SC',sans-serif;fill:#536b63}</style>
<rect width="960" height="440" rx="20" fill="#f9fcfa" stroke="#dce8e1"/>
<text x="36" y="48" class="heading">Agent Harness：从决策到可验收的行动</text><text x="36" y="75" class="sub">运行时组织上下文与执行；持久化状态支撑恢复；完成由验收结果判定</text>
<g><rect x="36" y="118" width="200" height="96" rx="16" fill="#e8f0ff" stroke="#4771ba" stroke-width="2"/><text x="56" y="152" class="label">任务与上下文</text><text x="56" y="179" class="detail">目标 · 约束 · 相关证据</text></g><g><rect x="278" y="118" width="180" height="96" rx="16" fill="#f0eafd" stroke="#8260bd" stroke-width="2"/><text x="298" y="152" class="label">模型决策</text><text x="298" y="179" class="detail">下一动作 / 完成提议</text></g><g><rect x="500" y="118" width="180" height="96" rx="16" fill="#e1f4ee" stroke="#12826e" stroke-width="2"/><text x="520" y="152" class="label">受控执行</text><text x="520" y="179" class="detail">权限 · 预算 · 工具</text></g><g><rect x="722" y="118" width="202" height="96" rx="16" fill="#fff0df" stroke="#c77732" stroke-width="2"/><text x="742" y="152" class="label">环境与验收</text><text x="742" y="179" class="detail">文件 · 界面 · 测试</text></g><path d="M236 166 L270 166" stroke="#56716a" stroke-width="2.5" fill="none"/><polygon points="270,166 263.2,170.2 263.2,161.8" fill="#56716a"/><path d="M458 166 L492 166" stroke="#56716a" stroke-width="2.5" fill="none"/><polygon points="492,166 485.2,170.2 485.2,161.8" fill="#56716a"/><path d="M680 166 L714 166" stroke="#56716a" stroke-width="2.5" fill="none"/><polygon points="714,166 707.2,170.2 707.2,161.8" fill="#56716a"/><path d="M824 224 L824 264 L136 264 L136 224" stroke="#56716a" stroke-width="2.5" fill="none" /><polygon points="136,224 140.2,230.8 131.8,230.8" fill="#56716a"/><text x="315" y="252" class="edge">观察结果回填；验收未通过则继续或报告阻塞</text><g><rect x="278" y="316" width="402" height="92" rx="16" fill="#f0eafd" stroke="#8260bd" stroke-width="2"/><text x="298" y="350" class="label">持久化状态与恢复</text><text x="298" y="377" class="detail">检查点 · 产物引用 · 调用记录 · 版本</text></g><path d="M590 224 L590 308" stroke="#56716a" stroke-width="2.5" fill="none" /><polygon points="590,308 585.8,301.2 594.2,301.2" fill="#56716a"/><text x="600" y="296" class="edge">保存</text><path d="M278 362 L136 362 L136 282" stroke="#56716a" stroke-width="2.5" fill="none" /><polygon points="136,282 140.2,288.8 131.8,288.8" fill="#56716a"/><text x="38" y="393" class="edge">恢复时核对真实环境</text>
</svg>